<mxfile host="app.diagrams.net" agent="Mozilla/5.0 (Windows NT 10.0; Win64; x64) AppleWebKit/537.36 (KHTML, like Gecko) Chrome/134.0.0.0 Safari/537.36 Edg/134.0.0.0" version="26.1.1">
  <diagram name="第 1 页" id="J-ko9PZrkzsbZIvzC7PJ">
    <mxGraphModel dx="1732" dy="788" grid="0" gridSize="10" guides="0" tooltips="1" connect="1" arrows="1" fold="1" page="0" pageScale="1" pageWidth="827" pageHeight="1169" math="0" shadow="0">
      <root>
        <mxCell id="0" />
        <mxCell id="1" parent="0" />
        <mxCell id="5Uzl4d87FfNYHLee8QU3-1" value="&lt;font style=&quot;font-size: 24px;&quot;&gt;输入&lt;/font&gt;" style="rounded=1;whiteSpace=wrap;html=1;fillColor=#fff2cc;strokeColor=#d6b656;sketch=1;curveFitting=1;jiggle=2;" vertex="1" parent="1">
          <mxGeometry x="-221" y="197" width="146" height="37" as="geometry" />
        </mxCell>
        <mxCell id="5Uzl4d87FfNYHLee8QU3-2" value="&lt;font style=&quot;font-size: 24px;&quot;&gt;输入嵌入&lt;/font&gt;" style="rounded=1;whiteSpace=wrap;html=1;fillColor=#fff2cc;strokeColor=#d6b656;sketch=1;curveFitting=1;jiggle=2;" vertex="1" parent="1">
          <mxGeometry x="-273" y="262" width="248" height="43" as="geometry" />
        </mxCell>
        <mxCell id="5Uzl4d87FfNYHLee8QU3-3" value="" style="endArrow=classic;html=1;rounded=0;exitX=0.5;exitY=1;exitDx=0;exitDy=0;strokeWidth=2;sketch=1;curveFitting=1;jiggle=2;flowAnimation=0;" edge="1" parent="1" source="5Uzl4d87FfNYHLee8QU3-1" target="5Uzl4d87FfNYHLee8QU3-2">
          <mxGeometry width="50" height="50" relative="1" as="geometry">
            <mxPoint x="-96" y="594" as="sourcePoint" />
            <mxPoint x="-46" y="544" as="targetPoint" />
          </mxGeometry>
        </mxCell>
        <mxCell id="5Uzl4d87FfNYHLee8QU3-4" value="" style="endArrow=classic;html=1;rounded=0;exitX=0.5;exitY=1;exitDx=0;exitDy=0;strokeWidth=2;sketch=1;curveFitting=1;jiggle=2;flowAnimation=0;entryX=0.5;entryY=0;entryDx=0;entryDy=0;" edge="1" parent="1" source="5Uzl4d87FfNYHLee8QU3-2" target="5Uzl4d87FfNYHLee8QU3-5">
          <mxGeometry width="50" height="50" relative="1" as="geometry">
            <mxPoint x="-147" y="376" as="sourcePoint" />
            <mxPoint x="-147" y="372" as="targetPoint" />
          </mxGeometry>
        </mxCell>
        <mxCell id="5Uzl4d87FfNYHLee8QU3-5" value="" style="rounded=0;whiteSpace=wrap;html=1;sketch=1;curveFitting=1;jiggle=2;fillColor=none;strokeColor=#6c8ebf;labelPosition=center;verticalLabelPosition=top;align=center;verticalAlign=bottom;" vertex="1" parent="1">
          <mxGeometry x="-279" y="353" width="259" height="369" as="geometry" />
        </mxCell>
        <mxCell id="5Uzl4d87FfNYHLee8QU3-6" value="解码器层&amp;nbsp;&lt;span style=&quot;font-family: &amp;quot;Comic Sans MS&amp;quot;;&quot;&gt;× N&lt;/span&gt;" style="text;html=1;align=center;verticalAlign=middle;whiteSpace=wrap;rounded=0;fontSize=24;" vertex="1" parent="1">
          <mxGeometry x="-143" y="313" width="151" height="30" as="geometry" />
        </mxCell>
        <mxCell id="5Uzl4d87FfNYHLee8QU3-7" value="&lt;font face=&quot;Comic Sans MS&quot; style=&quot;font-size: 24px;&quot;&gt;RMSNorm&lt;/font&gt;" style="rounded=1;whiteSpace=wrap;html=1;fillColor=#d5e8d4;strokeColor=#82b366;sketch=1;curveFitting=1;jiggle=2;" vertex="1" parent="1">
          <mxGeometry x="-220" y="362" width="146" height="43" as="geometry" />
        </mxCell>
        <mxCell id="5Uzl4d87FfNYHLee8QU3-8" value="" style="endArrow=classic;html=1;rounded=0;exitX=0.5;exitY=1;exitDx=0;exitDy=0;strokeWidth=2;sketch=1;curveFitting=1;jiggle=2;flowAnimation=0;" edge="1" parent="1">
          <mxGeometry width="50" height="50" relative="1" as="geometry">
            <mxPoint x="-148" y="406" as="sourcePoint" />
            <mxPoint x="-147" y="433" as="targetPoint" />
          </mxGeometry>
        </mxCell>
        <mxCell id="5Uzl4d87FfNYHLee8QU3-9" value="&lt;font style=&quot;font-size: 24px;&quot;&gt;Q&lt;/font&gt;" style="rounded=1;whiteSpace=wrap;html=1;fillColor=#fff2cc;strokeColor=#d6b656;sketch=1;curveFitting=1;jiggle=2;fontFamily=Comic Sans MS;" vertex="1" parent="1">
          <mxGeometry x="-261" y="434" width="66" height="43" as="geometry" />
        </mxCell>
        <mxCell id="5Uzl4d87FfNYHLee8QU3-10" value="&lt;font style=&quot;font-size: 24px;&quot;&gt;K&lt;/font&gt;" style="rounded=1;whiteSpace=wrap;html=1;fillColor=#fff2cc;strokeColor=#d6b656;sketch=1;curveFitting=1;jiggle=2;fontFamily=Comic Sans MS;" vertex="1" parent="1">
          <mxGeometry x="-182" y="434" width="66" height="43" as="geometry" />
        </mxCell>
        <mxCell id="5Uzl4d87FfNYHLee8QU3-11" value="&lt;span style=&quot;font-size: 24px;&quot;&gt;V&lt;/span&gt;" style="rounded=1;whiteSpace=wrap;html=1;fillColor=#fff2cc;strokeColor=#d6b656;sketch=1;curveFitting=1;jiggle=2;fontFamily=Comic Sans MS;" vertex="1" parent="1">
          <mxGeometry x="-101" y="435" width="66" height="43" as="geometry" />
        </mxCell>
        <mxCell id="5Uzl4d87FfNYHLee8QU3-12" value="" style="endArrow=classic;html=1;rounded=0;exitX=0.5;exitY=1;exitDx=0;exitDy=0;strokeWidth=2;sketch=1;curveFitting=1;jiggle=2;flowAnimation=0;" edge="1" parent="1">
          <mxGeometry width="50" height="50" relative="1" as="geometry">
            <mxPoint x="-147" y="479" as="sourcePoint" />
            <mxPoint x="-146" y="506" as="targetPoint" />
          </mxGeometry>
        </mxCell>
        <mxCell id="5Uzl4d87FfNYHLee8QU3-13" value="&lt;span style=&quot;font-size: 24px;&quot;&gt;自注意力机制&lt;/span&gt;" style="rounded=1;whiteSpace=wrap;html=1;fillColor=#dae8fc;strokeColor=#6c8ebf;sketch=1;curveFitting=1;jiggle=2;" vertex="1" parent="1">
          <mxGeometry x="-244" y="507" width="185" height="43" as="geometry" />
        </mxCell>
        <mxCell id="5Uzl4d87FfNYHLee8QU3-14" value="" style="endArrow=classic;html=1;rounded=0;exitX=0.5;exitY=1;exitDx=0;exitDy=0;strokeWidth=2;sketch=1;curveFitting=1;jiggle=2;flowAnimation=0;" edge="1" parent="1">
          <mxGeometry width="50" height="50" relative="1" as="geometry">
            <mxPoint x="-149" y="553" as="sourcePoint" />
            <mxPoint x="-148" y="580" as="targetPoint" />
          </mxGeometry>
        </mxCell>
        <mxCell id="5Uzl4d87FfNYHLee8QU3-18" value="&lt;span style=&quot;font-size: 24px;&quot;&gt;前馈神经网络&lt;/span&gt;&lt;div&gt;&lt;span style=&quot;font-size: 24px;&quot;&gt;SwiGLU&lt;/span&gt;&lt;/div&gt;" style="rounded=1;whiteSpace=wrap;html=1;fillColor=#e1d5e7;strokeColor=#9673a6;sketch=1;curveFitting=1;jiggle=2;fontFamily=Comic Sans MS;" vertex="1" parent="1">
          <mxGeometry x="-239" y="650" width="185" height="64" as="geometry" />
        </mxCell>
        <mxCell id="5Uzl4d87FfNYHLee8QU3-19" value="&lt;font face=&quot;Comic Sans MS&quot; style=&quot;font-size: 24px;&quot;&gt;RMSNorm&lt;/font&gt;" style="rounded=1;whiteSpace=wrap;html=1;fillColor=#d5e8d4;strokeColor=#82b366;sketch=1;curveFitting=1;jiggle=2;" vertex="1" parent="1">
          <mxGeometry x="-221" y="580" width="146" height="43" as="geometry" />
        </mxCell>
        <mxCell id="5Uzl4d87FfNYHLee8QU3-21" value="" style="endArrow=classic;html=1;rounded=0;exitX=0.5;exitY=1;exitDx=0;exitDy=0;strokeWidth=2;sketch=1;curveFitting=1;jiggle=2;flowAnimation=0;" edge="1" parent="1">
          <mxGeometry width="50" height="50" relative="1" as="geometry">
            <mxPoint x="-149" y="625" as="sourcePoint" />
            <mxPoint x="-148" y="652" as="targetPoint" />
          </mxGeometry>
        </mxCell>
        <mxCell id="5Uzl4d87FfNYHLee8QU3-22" value="" style="endArrow=classic;html=1;rounded=0;exitX=0.49;exitY=1;exitDx=0;exitDy=0;strokeWidth=2;sketch=1;curveFitting=1;jiggle=2;flowAnimation=0;exitPerimeter=0;entryX=0.5;entryY=0;entryDx=0;entryDy=0;" edge="1" parent="1" source="5Uzl4d87FfNYHLee8QU3-5" target="5Uzl4d87FfNYHLee8QU3-23">
          <mxGeometry width="50" height="50" relative="1" as="geometry">
            <mxPoint x="-148" y="724" as="sourcePoint" />
            <mxPoint x="-149" y="752" as="targetPoint" />
          </mxGeometry>
        </mxCell>
        <mxCell id="5Uzl4d87FfNYHLee8QU3-23" value="&lt;font face=&quot;Comic Sans MS&quot; style=&quot;font-size: 24px;&quot;&gt;RMSNorm&lt;/font&gt;" style="rounded=1;whiteSpace=wrap;html=1;fillColor=#d5e8d4;strokeColor=#82b366;sketch=1;curveFitting=1;jiggle=2;" vertex="1" parent="1">
          <mxGeometry x="-224" y="751" width="146" height="43" as="geometry" />
        </mxCell>
        <mxCell id="5Uzl4d87FfNYHLee8QU3-25" value="" style="endArrow=classic;html=1;rounded=0;exitX=0.473;exitY=0.97;exitDx=0;exitDy=0;strokeWidth=2;sketch=1;curveFitting=1;jiggle=2;flowAnimation=0;exitPerimeter=0;entryX=0.5;entryY=0;entryDx=0;entryDy=0;" edge="1" parent="1">
          <mxGeometry width="50" height="50" relative="1" as="geometry">
            <mxPoint x="-151.94200000000023" y="792.7099999999998" as="sourcePoint" />
            <mxPoint x="-151" y="827" as="targetPoint" />
          </mxGeometry>
        </mxCell>
        <mxCell id="5Uzl4d87FfNYHLee8QU3-27" value="&lt;font face=&quot;Comic Sans MS&quot;&gt;&lt;span style=&quot;font-size: 24px;&quot;&gt;线性层&lt;/span&gt;&lt;/font&gt;&lt;div&gt;&lt;font face=&quot;Comic Sans MS&quot;&gt;&lt;span style=&quot;font-size: 24px;&quot;&gt;Softmax&lt;/span&gt;&lt;/font&gt;&lt;/div&gt;" style="rounded=1;whiteSpace=wrap;html=1;fillColor=#f8cecc;strokeColor=#b85450;sketch=1;curveFitting=1;jiggle=2;" vertex="1" parent="1">
          <mxGeometry x="-226" y="827" width="146" height="60" as="geometry" />
        </mxCell>
        <mxCell id="5Uzl4d87FfNYHLee8QU3-28" value="输出层" style="text;html=1;align=center;verticalAlign=middle;whiteSpace=wrap;rounded=0;fontSize=24;" vertex="1" parent="1">
          <mxGeometry x="-150" y="796" width="151" height="30" as="geometry" />
        </mxCell>
        <mxCell id="5Uzl4d87FfNYHLee8QU3-30" value="" style="endArrow=classic;html=1;rounded=0;exitX=0.49;exitY=1;exitDx=0;exitDy=0;strokeWidth=2;sketch=1;curveFitting=1;jiggle=2;flowAnimation=0;exitPerimeter=0;entryX=0.5;entryY=0;entryDx=0;entryDy=0;" edge="1" parent="1">
          <mxGeometry width="50" height="50" relative="1" as="geometry">
            <mxPoint x="-152" y="887" as="sourcePoint" />
            <mxPoint x="-151" y="916" as="targetPoint" />
          </mxGeometry>
        </mxCell>
        <mxCell id="5Uzl4d87FfNYHLee8QU3-31" value="&lt;span style=&quot;font-size: 24px;&quot;&gt;输出&lt;/span&gt;" style="rounded=1;whiteSpace=wrap;html=1;fillColor=#fff2cc;strokeColor=#d6b656;sketch=1;curveFitting=1;jiggle=2;" vertex="1" parent="1">
          <mxGeometry x="-227" y="916" width="146" height="37" as="geometry" />
        </mxCell>
      </root>
    </mxGraphModel>
  </diagram>
</mxfile>
